<?xml version="1.0" standalone="no"?>
<!DOCTYPE svg PUBLIC "-//W3C//DTD SVG 20010904//EN"
 "http://www.w3.org/TR/2001/REC-SVG-20010904/DTD/svg10.dtd">
<svg version="1.0" xmlns="http://www.w3.org/2000/svg"
 width="300.000000pt" height="300.000000pt" viewBox="0 0 300.000000 300.000000"
 preserveAspectRatio="xMidYMid meet">

<g transform="translate(0.000000,300.000000) scale(0.100000,-0.100000)"
fill="#000000" stroke="none">
<path d="M851 2649 c-134 -28 -166 -199 -52 -274 17 -11 31 -23 31 -26 0 -4
-16 -10 -37 -14 -27 -5 -60 -29 -130 -93 l-93 -86 0 -61 c0 -33 4 -55 8 -50
10 14 159 135 166 135 3 0 6 -46 6 -103 0 -96 -3 -111 -39 -208 -51 -135 -88
-263 -106 -368 -21 -117 -22 -111 33 -111 49 0 49 0 61 43 57 199 152 444 179
461 24 14 92 -143 160 -370 l39 -129 101 -3 101 -3 11 43 c48 185 160 464 185
462 26 -3 87 -149 155 -374 l38 -125 100 -3 101 -3 26 88 c70 238 143 413 171
413 27 0 99 -171 159 -380 l33 -115 47 -3 48 -3 -6 68 c-9 92 -45 232 -102
387 -43 119 -46 135 -47 228 0 54 2 102 6 105 3 3 14 0 23 -8 10 -8 46 -39 81
-68 l62 -53 0 60 0 60 -89 81 c-67 61 -99 84 -125 88 -44 7 -45 13 -7 36 130
76 69 279 -83 279 -92 0 -151 -60 -151 -152 0 -63 20 -98 73 -127 17 -10 32
-20 32 -24 0 -4 -17 -9 -37 -12 -31 -5 -55 -23 -123 -92 -46 -47 -89 -85 -95
-85 -9 0 -79 72 -146 150 -9 10 -32 22 -53 25 -43 9 -45 14 -8 38 50 34 67 67
67 129 0 42 -5 64 -21 85 -67 90 -199 86 -262 -8 -44 -63 -19 -162 51 -204 36
-21 34 -31 -8 -39 -27 -5 -52 -26 -112 -91 -42 -47 -82 -85 -88 -85 -6 0 -48
38 -95 85 -61 61 -94 87 -117 91 -41 8 -42 18 -4 40 44 26 74 87 69 139 -5 44
-45 108 -76 120 -37 16 -79 21 -111 14z m259 -539 l75 -69 70 69 c39 39 74 70
78 70 4 0 7 -48 7 -108 0 -99 -3 -114 -35 -197 -42 -105 -89 -264 -106 -352
-6 -35 -15 -61 -19 -58 -4 2 -13 33 -19 67 -15 75 -80 279 -121 379 -26 62
-30 85 -30 164 0 85 4 106 19 105 3 -1 40 -32 81 -70z m585 0 l71 -70 76 70
c42 38 81 70 87 70 21 0 2 -217 -24 -280 -40 -98 -95 -278 -112 -371 -15 -78
-19 -88 -30 -73 -7 10 -13 29 -13 43 0 42 -55 237 -104 370 -42 112 -46 133
-46 211 0 80 4 100 19 100 3 0 37 -32 76 -70z"/>
<path d="M630 1165 c0 -13 99 -15 870 -13 570 2 871 6 873 13 1 7 -295 11
-870 13 -773 2 -873 0 -873 -13z"/>
<path d="M800 973 c-70 -37 -100 -110 -100 -249 0 -194 55 -265 205 -265 135
0 186 46 207 188 20 139 -11 269 -76 316 -43 31 -184 37 -236 10z m181 -63
c39 -21 53 -68 53 -185 0 -159 -23 -195 -123 -195 -96 0 -120 28 -129 147 -7
112 5 181 38 215 25 24 36 28 85 28 31 0 65 -5 76 -10z"/>
<path d="M1170 940 l0 -40 80 0 80 0 0 -220 0 -220 40 0 40 0 0 220 0 220 80
0 80 0 0 40 0 40 -200 0 -200 0 0 -40z"/>
<path d="M1602 958 c3 -13 29 -130 58 -261 l54 -238 65 3 65 3 32 166 c49 254
55 282 63 273 4 -5 28 -107 52 -227 l43 -218 65 3 65 3 53 250 c29 138 53 253
53 258 0 4 -17 7 -38 7 l-38 0 -38 -197 c-49 -253 -47 -246 -56 -236 -4 4 -27
104 -50 221 l-44 213 -70 -3 -70 -3 -41 -212 c-23 -117 -44 -216 -48 -219 -7
-8 -9 -2 -47 186 -16 80 -34 169 -40 198 l-12 52 -40 0 c-37 0 -40 -2 -36 -22z"/>
</g>
</svg>
